<svg width="526" height="526" viewBox="0 0 526 526" fill="none" xmlns="http://www.w3.org/2000/svg"><g clip-path="url(#a)"><path d="M434.681 0H91.319C40.885 0 0 40.885 0 91.32v343.36C0 485.115 40.885 526 91.32 526h343.36c50.435 0 91.32-40.885 91.32-91.319V91.319C526 40.885 485.115 0 434.681 0" fill="#204dbc"/><path d="M384.491 132.888v-1.205c0-13.552-8.876-24.839-21.368-28.784a31.5 31.5 0 0 0-10.374-1.754H173.288c-3.689 0-7.233.658-10.52 1.827-.365.109-.694.256-1.023.365-.292.11-.621.219-.913.365-10.739 4.238-18.301 14.064-19.141 25.899a33 33 0 0 0-.182 3.324v147.681h.073v127.775c0 6.209 1.899 11.579 7.89 14.647 6.136 3.142 11.981 2.411 17.533-1.461 30.866-21.551 61.367-43.651 92.744-64.435 1.242-.804 2.265-1.315 3.288-1.461 1.022.146 2.045.621 3.287 1.461 31.377 20.821 61.878 42.92 92.744 64.435 5.552 3.872 11.433 4.603 17.533 1.461 5.954-3.032 7.89-8.438 7.89-14.647z" fill="#fff"/><path d="M202.108 101.109v200.537c0 1.352-.109 2.703 0 4.018.658 5.224 4.237 8.219 9.461 8.438 2.886.11 5.223-.913 7.488-2.374 13.15-8.547 26.373-17.095 39.523-25.679 1.534-1.023 2.959-1.68 4.384-1.79 1.461.11 2.849.804 4.383 1.79 13.15 8.584 26.336 17.095 39.523 25.679 2.301 1.498 4.602 2.52 7.488 2.374 5.26-.219 8.84-3.214 9.461-8.438.146-1.315 0-2.666 0-4.018V101.109z" fill="#ffc529"/></g><defs><clipPath id="a"><path fill="#fff" d="M0 0h526v526H0z"/></clipPath></defs></svg>